<svg width="512" height="512" viewBox="0 0 512 512" fill="none" xmlns="http://www.w3.org/2000/svg">
<g clip-path="url(#clip0_305_11)">
<rect width="512" height="512" rx="96" fill="black"/>
<path d="M210.134 123.5C210.134 102.832 200.395 84.7777 186.448 79.5925L98.1551 46.7659C83.3001 41.2428 79.1343 21.5142 79.1343 -0.5" stroke="#0088FF" stroke-width="39"/>
<path d="M245.134 123.5V109.844C245.134 83.9514 237.041 59.461 223.134 43.273L210.89 29.0198C204.723 21.8415 201.134 10.9815 201.134 -0.5" stroke="#E33B40" stroke-width="39"/>
<path d="M265.134 123.5V111.373C265.134 84.6126 273.65 59.4015 288.134 43.273L301.302 28.6109C307.495 21.7163 311.134 10.9394 311.134 -0.5" stroke="#FFB224" stroke-width="39"/>
<path d="M303.134 123.5C303.134 102.749 312.852 84.6215 326.768 79.4155L414.869 46.4565C429.691 40.9112 431.134 21.603 431.134 -0.5" stroke="#26D9BA" stroke-width="39"/>
<path d="M256 96C167.667 96 96 167.667 96 256C96 344.36 167.667 416 256 416C344.347 416 416 344.36 416 256C416 167.667 344.36 96 256 96ZM247.68 384.267V283.893H191.867L272.04 127.733V228.107H325.76L247.68 384.267Z" fill="white"/>
</g>
<defs>
<clipPath id="clip0_305_11">
<rect width="512" height="512" rx="96" fill="white"/>
</clipPath>
</defs>
</svg>
